<svg width="118" height="118" viewBox="0 0 118 118" fill="none" xmlns="http://www.w3.org/2000/svg">
<path d="M98.9481 15.9791H19.0522C13.9627 15.9791 9.8335 20.1084 9.8335 25.1979V92.802C9.8335 97.8916 13.9627 102.021 19.0522 102.021H98.9481C104.038 102.021 108.167 97.8916 108.167 92.802V25.1979C108.167 20.1084 104.038 15.9791 98.9481 15.9791ZM98.9481 91.6497C98.9481 92.2835 98.4295 92.802 97.7957 92.802H20.2046C19.5708 92.802 19.0522 92.2835 19.0522 91.6497V26.3502C19.0522 25.7164 19.5708 25.1979 20.2046 25.1979H97.7957C98.4295 25.1979 98.9481 25.7164 98.9481 26.3502V91.6497ZM78.3019 47.2076L66.5096 59L78.3019 70.7923C79.1854 71.6757 79.1854 73.1162 78.3019 74.0188L74.019 78.3017C73.1356 79.1852 71.6951 79.1852 70.7925 78.3017L59.0002 66.5094L47.2078 78.3017C46.3244 79.1852 44.8839 79.1852 43.9813 78.3017L39.6984 74.0188C38.8149 73.1354 38.8149 71.6949 39.6984 70.7923L51.4907 59L39.6984 47.2076C38.8149 46.3242 38.8149 44.8837 39.6984 43.9811L43.9813 39.6982C44.8647 38.8147 46.3052 38.8147 47.2078 39.6982L59.0002 51.4905L70.7925 39.6982C71.6759 38.8147 73.1164 38.8147 74.019 39.6982L78.3019 43.9811C79.2046 44.8645 79.2046 46.305 78.3019 47.2076Z" fill="#6B7280"/>
</svg>
