<?xml version="1.0" encoding="utf-8"?>
<!-- Generator: Adobe Illustrator 26.2.1, SVG Export Plug-In . SVG Version: 6.00 Build 0)  -->
<svg version="1.1" id="Layer_1" xmlns="http://www.w3.org/2000/svg" xmlns:xlink="http://www.w3.org/1999/xlink" x="0px" y="0px"
	 viewBox="0 0 419.2 86.5" style="enable-background:new 0 0 419.2 86.5;" xml:space="preserve">
<style type="text/css">
	.st0{fill:url(#SVGID_1_);}
	.st1{fill:url(#SVGID_00000169530020333682548090000010174032684066445962_);}
</style>
<g>
	<path d="M157.2,56.7c-1.7,0.7-3.3,1-5,1c-2.7,0-5.1-0.5-7.2-1.4c-2.1-0.9-3.9-2.2-5.4-3.8s-2.6-3.5-3.4-5.7
		c-0.8-2.2-1.2-4.6-1.2-7.1c0-2.6,0.4-5,1.2-7.3c0.8-2.2,1.9-4.2,3.4-5.8c1.5-1.7,3.3-3,5.4-3.9c2.1-0.9,4.5-1.4,7.2-1.4
		c1.8,0,3.5,0.3,5.2,0.8c1.7,0.5,3.2,1.3,4.5,2.4c1.4,1,2.5,2.3,3.3,3.9c0.9,1.5,1.4,3.3,1.6,5.3h-7.3c-0.5-2-1.3-3.4-2.6-4.4
		c-1.3-1-2.9-1.5-4.7-1.5c-1.7,0-3.2,0.3-4.4,1c-1.2,0.7-2.2,1.6-2.9,2.7s-1.3,2.4-1.6,3.8c-0.3,1.4-0.5,2.9-0.5,4.4
		c0,1.5,0.2,2.9,0.5,4.3c0.3,1.4,0.9,2.6,1.6,3.7c0.7,1.1,1.7,2,2.9,2.7c1.2,0.7,2.7,1,4.4,1c2.5,0,4.5-0.6,5.9-1.9s2.2-3.2,2.4-5.6
		h-7.7v-5.7h14.7v18.9h-4.9l-0.8-4C160.4,54.7,158.9,56,157.2,56.7z"/>
	<path d="M169.7,39.4c0.1-1.6,0.5-3,1.2-4.1c0.7-1.1,1.6-1.9,2.7-2.6c1.1-0.7,2.4-1.1,3.7-1.4c1.4-0.3,2.8-0.4,4.2-0.4
		c1.3,0,2.6,0.1,3.9,0.3c1.3,0.2,2.5,0.5,3.6,1c1.1,0.5,2,1.2,2.6,2.2s1,2.2,1,3.7v13.1c0,1.1,0.1,2.2,0.2,3.3
		c0.1,1,0.4,1.8,0.7,2.3h-7c-0.1-0.4-0.2-0.8-0.3-1.2s-0.1-0.8-0.2-1.2c-1.1,1.1-2.4,1.9-3.9,2.4s-3,0.7-4.6,0.7
		c-1.2,0-2.3-0.1-3.4-0.4s-2-0.7-2.7-1.4c-0.8-0.6-1.4-1.4-1.8-2.3s-0.7-2.1-0.7-3.4c0-1.4,0.3-2.6,0.8-3.5c0.5-0.9,1.2-1.7,2-2.2
		s1.7-1,2.7-1.2c1-0.3,2.1-0.5,3.1-0.7c1-0.2,2.1-0.3,3.1-0.4c1-0.1,1.9-0.2,2.7-0.4c0.8-0.2,1.4-0.5,1.9-0.9s0.7-0.9,0.6-1.6
		c0-0.7-0.1-1.3-0.4-1.8c-0.2-0.4-0.6-0.8-1-1c-0.4-0.2-0.9-0.4-1.4-0.5c-0.5-0.1-1.1-0.1-1.7-0.1c-1.4,0-2.4,0.3-3.2,0.9
		c-0.8,0.6-1.2,1.6-1.4,2.9H169.7z M185.7,44.6c-0.3,0.3-0.7,0.5-1.1,0.6s-0.9,0.3-1.4,0.4c-0.5,0.1-1,0.2-1.6,0.2
		c-0.6,0.1-1.1,0.1-1.7,0.2c-0.5,0.1-1,0.2-1.5,0.4c-0.5,0.2-0.9,0.4-1.3,0.7c-0.4,0.3-0.7,0.6-0.9,1.1c-0.2,0.4-0.3,1-0.3,1.6
		c0,0.6,0.1,1.1,0.3,1.6c0.2,0.4,0.5,0.8,0.9,1s0.8,0.4,1.4,0.5s1.1,0.1,1.6,0.1c1.4,0,2.4-0.2,3.2-0.7c0.7-0.5,1.3-1,1.7-1.6
		s0.6-1.3,0.7-1.9s0.1-1.2,0.1-1.6V44.6z"/>
	<path d="M201.8,31.7v3.4h0.1c0.9-1.3,2-2.3,3.3-3c1.3-0.7,2.8-1.1,4.4-1.1c1.6,0,3.1,0.3,4.4,0.9c1.3,0.6,2.3,1.7,3,3.3
		c0.7-1.1,1.8-2.1,3.1-2.9c1.3-0.8,2.8-1.3,4.6-1.3c1.3,0,2.6,0.2,3.7,0.5c1.1,0.3,2.1,0.8,2.9,1.6c0.8,0.7,1.4,1.7,1.9,2.8
		c0.5,1.2,0.7,2.5,0.7,4.2v16.9h-6.9V42.6c0-0.8,0-1.6-0.1-2.4c-0.1-0.7-0.2-1.4-0.5-2c-0.3-0.6-0.7-1-1.3-1.3
		c-0.6-0.3-1.3-0.5-2.3-0.5c-1,0-1.8,0.2-2.4,0.6s-1.1,0.9-1.4,1.5c-0.3,0.6-0.6,1.3-0.7,2.1c-0.1,0.8-0.2,1.5-0.2,2.3v14.1h-6.9
		V42.8c0-0.7,0-1.5,0-2.2c0-0.7-0.2-1.4-0.4-2c-0.2-0.6-0.7-1.1-1.2-1.5c-0.6-0.4-1.4-0.6-2.5-0.6c-0.3,0-0.8,0.1-1.3,0.2
		s-1.1,0.4-1.6,0.8s-0.9,1-1.3,1.8c-0.4,0.8-0.5,1.8-0.5,3v14.7h-6.9V31.7H201.8z"/>
	<path d="M243.1,31.7v3.4h0.1c0.9-1.3,2-2.3,3.3-3c1.3-0.7,2.8-1.1,4.4-1.1c1.6,0,3.1,0.3,4.4,0.9c1.3,0.6,2.3,1.7,3,3.3
		c0.7-1.1,1.8-2.1,3.1-2.9c1.3-0.8,2.8-1.3,4.6-1.3c1.3,0,2.6,0.2,3.7,0.5c1.1,0.3,2.1,0.8,2.9,1.6c0.8,0.7,1.4,1.7,1.9,2.8
		c0.5,1.2,0.7,2.5,0.7,4.2v16.9h-6.9V42.6c0-0.8,0-1.6-0.1-2.4c-0.1-0.7-0.2-1.4-0.5-2c-0.3-0.6-0.7-1-1.3-1.3
		c-0.6-0.3-1.3-0.5-2.3-0.5c-1,0-1.8,0.2-2.4,0.6s-1.1,0.9-1.4,1.5c-0.3,0.6-0.6,1.3-0.7,2.1c-0.1,0.8-0.2,1.5-0.2,2.3v14.1h-6.9
		V42.8c0-0.7,0-1.5,0-2.2c0-0.7-0.2-1.4-0.4-2c-0.2-0.6-0.7-1.1-1.2-1.5c-0.6-0.4-1.4-0.6-2.5-0.6c-0.3,0-0.8,0.1-1.3,0.2
		s-1.1,0.4-1.6,0.8s-0.9,1-1.3,1.8c-0.4,0.8-0.5,1.8-0.5,3v14.7h-6.9V31.7H243.1z"/>
	<path d="M277.4,39.4c0.1-1.6,0.5-3,1.2-4.1c0.7-1.1,1.6-1.9,2.7-2.6c1.1-0.7,2.4-1.1,3.7-1.4c1.4-0.3,2.8-0.4,4.2-0.4
		c1.3,0,2.6,0.1,3.9,0.3c1.3,0.2,2.5,0.5,3.6,1c1.1,0.5,2,1.2,2.6,2.2s1,2.2,1,3.7v13.1c0,1.1,0.1,2.2,0.2,3.3
		c0.1,1,0.4,1.8,0.7,2.3h-7c-0.1-0.4-0.2-0.8-0.3-1.2s-0.1-0.8-0.2-1.2c-1.1,1.1-2.4,1.9-3.9,2.4s-3,0.7-4.6,0.7
		c-1.2,0-2.3-0.1-3.4-0.4s-2-0.7-2.7-1.4c-0.8-0.6-1.4-1.4-1.8-2.3s-0.7-2.1-0.7-3.4c0-1.4,0.3-2.6,0.8-3.5c0.5-0.9,1.2-1.7,2-2.2
		s1.7-1,2.7-1.2c1-0.3,2.1-0.5,3.1-0.7c1-0.2,2.1-0.3,3.1-0.4c1-0.1,1.9-0.2,2.7-0.4c0.8-0.2,1.4-0.5,1.9-0.9s0.7-0.9,0.6-1.6
		c0-0.7-0.1-1.3-0.4-1.8c-0.2-0.4-0.6-0.8-1-1c-0.4-0.2-0.9-0.4-1.4-0.5c-0.5-0.1-1.1-0.1-1.7-0.1c-1.4,0-2.4,0.3-3.2,0.9
		c-0.8,0.6-1.2,1.6-1.4,2.9H277.4z M293.4,44.6c-0.3,0.3-0.7,0.5-1.1,0.6s-0.9,0.3-1.4,0.4c-0.5,0.1-1,0.2-1.6,0.2
		c-0.6,0.1-1.1,0.1-1.7,0.2c-0.5,0.1-1,0.2-1.5,0.4c-0.5,0.2-0.9,0.4-1.3,0.7c-0.4,0.3-0.7,0.6-0.9,1.1c-0.2,0.4-0.3,1-0.3,1.6
		c0,0.6,0.1,1.1,0.3,1.6c0.2,0.4,0.5,0.8,0.9,1s0.8,0.4,1.4,0.5s1.1,0.1,1.6,0.1c1.4,0,2.4-0.2,3.2-0.7c0.7-0.5,1.3-1,1.7-1.6
		s0.6-1.3,0.7-1.9s0.1-1.2,0.1-1.6V44.6z"/>
	<path d="M309.4,48.3c0.4,0.8,1,1.5,1.7,2c0.7,0.5,1.5,0.9,2.5,1.1c0.9,0.2,1.9,0.4,2.9,0.4c0.7,0,1.4-0.1,2.2-0.2s1.5-0.3,2.2-0.7
		c0.7-0.3,1.3-0.8,1.7-1.3c0.5-0.6,0.7-1.3,0.7-2.2c0-0.9-0.3-1.7-0.9-2.3c-0.6-0.6-1.4-1.1-2.4-1.5s-2.1-0.7-3.3-1s-2.5-0.6-3.8-1
		c-1.3-0.3-2.6-0.7-3.8-1.2c-1.2-0.5-2.3-1.1-3.3-1.8c-1-0.7-1.8-1.7-2.4-2.8c-0.6-1.1-0.9-2.5-0.9-4.1c0-1.8,0.4-3.3,1.1-4.7
		c0.8-1.3,1.8-2.4,3-3.3c1.2-0.9,2.6-1.5,4.2-2c1.6-0.4,3.1-0.6,4.7-0.6c1.8,0,3.6,0.2,5.2,0.6c1.7,0.4,3.2,1.1,4.5,2
		c1.3,0.9,2.3,2.1,3.1,3.5c0.8,1.4,1.1,3.1,1.1,5.2h-7.4c-0.1-1-0.3-1.9-0.7-2.6c-0.4-0.7-0.9-1.2-1.5-1.6c-0.6-0.4-1.3-0.7-2.1-0.8
		c-0.8-0.2-1.7-0.2-2.6-0.2c-0.6,0-1.2,0.1-1.9,0.2s-1.2,0.4-1.7,0.7c-0.5,0.3-0.9,0.7-1.2,1.2c-0.3,0.5-0.5,1.1-0.5,1.9
		c0,0.7,0.1,1.2,0.4,1.7c0.3,0.4,0.8,0.8,1.5,1.2c0.8,0.4,1.8,0.7,3.2,1.1c1.4,0.4,3.1,0.8,5.3,1.4c0.7,0.1,1.6,0.4,2.7,0.7
		c1.2,0.3,2.3,0.9,3.4,1.6s2.1,1.8,3,3c0.8,1.3,1.2,2.9,1.2,4.8c0,1.6-0.3,3.1-0.9,4.4c-0.6,1.4-1.5,2.5-2.8,3.5
		c-1.2,1-2.7,1.8-4.5,2.3c-1.8,0.6-3.9,0.8-6.3,0.8c-1.9,0-3.8-0.2-5.6-0.7c-1.8-0.5-3.4-1.2-4.8-2.2c-1.4-1-2.5-2.3-3.3-3.9
		c-0.8-1.6-1.2-3.4-1.2-5.6h7.4C308.8,46.5,309,47.5,309.4,48.3z"/>
	<path d="M353.3,56.9L348.8,40h-0.1l-4.3,16.9h-7.2l-8-25.3h7.3l4.6,17.1h0.1l4.2-17.1h6.7l4.3,17.1h0.1l4.6-17.1h7.1l-8,25.3H353.3
		z"/>
	<path d="M368.1,39.4c0.1-1.6,0.5-3,1.2-4.1c0.7-1.1,1.6-1.9,2.7-2.6c1.1-0.7,2.4-1.1,3.7-1.4c1.4-0.3,2.8-0.4,4.2-0.4
		c1.3,0,2.6,0.1,3.9,0.3c1.3,0.2,2.5,0.5,3.6,1c1.1,0.5,2,1.2,2.6,2.2c0.7,0.9,1,2.2,1,3.7v13.1c0,1.1,0.1,2.2,0.2,3.3
		c0.1,1,0.4,1.8,0.7,2.3h-7c-0.1-0.4-0.2-0.8-0.3-1.2c-0.1-0.4-0.1-0.8-0.2-1.2c-1.1,1.1-2.4,1.9-3.9,2.4c-1.5,0.5-3,0.7-4.6,0.7
		c-1.2,0-2.3-0.1-3.4-0.4c-1-0.3-2-0.7-2.7-1.4s-1.4-1.4-1.8-2.3s-0.7-2.1-0.7-3.4c0-1.4,0.3-2.6,0.8-3.5s1.2-1.7,2-2.2
		s1.7-1,2.7-1.2c1-0.3,2.1-0.5,3.1-0.7c1-0.2,2.1-0.3,3.1-0.4s1.9-0.2,2.7-0.4s1.4-0.5,1.9-0.9c0.5-0.4,0.7-0.9,0.6-1.6
		c0-0.7-0.1-1.3-0.4-1.8c-0.2-0.4-0.6-0.8-1-1s-0.9-0.4-1.4-0.5c-0.5-0.1-1.1-0.1-1.7-0.1c-1.4,0-2.4,0.3-3.2,0.9
		c-0.8,0.6-1.2,1.6-1.4,2.9H368.1z M384.1,44.6c-0.3,0.3-0.7,0.5-1.1,0.6c-0.4,0.1-0.9,0.3-1.4,0.4s-1,0.2-1.6,0.2
		c-0.6,0.1-1.1,0.1-1.7,0.2c-0.5,0.1-1,0.2-1.5,0.4c-0.5,0.2-0.9,0.4-1.3,0.7c-0.4,0.3-0.7,0.6-0.9,1.1s-0.3,1-0.3,1.6
		c0,0.6,0.1,1.1,0.3,1.6c0.2,0.4,0.5,0.8,0.9,1c0.4,0.2,0.8,0.4,1.4,0.5c0.5,0.1,1.1,0.1,1.6,0.1c1.4,0,2.4-0.2,3.2-0.7
		s1.3-1,1.7-1.6c0.4-0.6,0.6-1.3,0.7-1.9c0.1-0.7,0.1-1.2,0.1-1.6V44.6z"/>
	<path d="M400.1,31.7v3.2h0.1c0.8-1.4,1.9-2.4,3.2-3c1.3-0.6,2.7-0.9,4.3-0.9c2,0,3.7,0.4,5.1,1.1c1.4,0.8,2.6,1.7,3.6,3
		c0.9,1.2,1.6,2.7,2.1,4.3c0.5,1.6,0.7,3.4,0.7,5.2c0,1.7-0.2,3.3-0.7,4.9c-0.5,1.6-1.1,2.9-2.1,4.2c-0.9,1.2-2.1,2.2-3.5,2.9
		s-3,1.1-4.9,1.1c-1.6,0-3-0.3-4.3-1c-1.3-0.6-2.4-1.6-3.2-2.8h-0.1v12h-6.9V31.7H400.1z M409.1,51.7c0.8-0.5,1.4-1.1,1.9-1.8
		c0.5-0.7,0.8-1.6,1-2.6c0.2-1,0.3-2,0.3-3c0-1-0.1-2-0.3-3c-0.2-1-0.6-1.8-1-2.6c-0.5-0.8-1.1-1.4-1.9-1.9
		c-0.8-0.5-1.7-0.7-2.8-0.7c-1.1,0-2.1,0.2-2.9,0.7c-0.8,0.5-1.4,1.1-1.9,1.8c-0.5,0.7-0.8,1.6-1,2.6c-0.2,1-0.3,2-0.3,3
		c0,1,0.1,2,0.3,3c0.2,1,0.6,1.8,1,2.6c0.5,0.7,1.1,1.3,1.9,1.8c0.8,0.5,1.7,0.7,2.8,0.7C407.4,52.4,408.3,52.2,409.1,51.7z"/>
</g>
<linearGradient id="SVGID_1_" gradientUnits="userSpaceOnUse" x1="47.0491" y1="-5.1297" x2="47.0491" y2="62.44">
	<stop  offset="0" style="stop-color:#55CDFB"/>
	<stop  offset="0.2347" style="stop-color:#56B0F5"/>
	<stop  offset="0.7398" style="stop-color:#5868E4"/>
	<stop  offset="1" style="stop-color:#5940DB"/>
</linearGradient>
<path class="st0" d="M86.5,0c-8,14.9-14.5,25.6-19.9,33.3c-2.4,3.5-4.6,6.4-6.6,8.7C52.5,51.1,48.6,52.2,47,52.2
	c-1.5,0-5.5-1.2-13-10.3c-1.9-2.3-4.1-5.2-6.6-8.7C22.1,25.6,15.6,14.9,7.6,0C4.9,2.5,2.4,5.2,0.2,8.1C8.3,23.1,15.1,34,20.9,42
	c2.5,3.4,4.8,6.3,6.9,8.7c8.8,10,14.7,11.9,19.2,11.9c4.5,0,10.4-2,19.2-11.9c2.1-2.4,4.4-5.3,6.9-8.7C79,34,85.8,23.1,93.9,8.1
	C91.7,5.2,89.2,2.5,86.5,0z"/>
<linearGradient id="SVGID_00000083799830862042357550000015950177796313644673_" gradientUnits="userSpaceOnUse" x1="47.049" y1="18.3273" x2="47.049" y2="90.925">
	<stop  offset="0" style="stop-color:#55CDFB"/>
	<stop  offset="0.2347" style="stop-color:#56B0F5"/>
	<stop  offset="0.7398" style="stop-color:#5868E4"/>
	<stop  offset="1" style="stop-color:#5940DB"/>
</linearGradient>
<path style="fill:url(#SVGID_00000083799830862042357550000015950177796313644673_);" d="M73.2,42c-2.3-3.4-4.5-6.2-6.5-8.7
	c-9-10.8-15-13-19.6-13c-4.6,0-10.6,2.1-19.6,13c-2,2.4-4.2,5.3-6.5,8.7C15.1,50.4,8.2,62.1,0,78.1c2.3,3.1,4.8,5.9,7.6,8.5
	c8.2-16.2,14.8-27.7,20.2-35.9c2.3-3.5,4.3-6.3,6.2-8.7c7.6-9.8,11.5-11,13.1-11c1.5,0,5.4,1.2,13,11c1.8,2.4,3.9,5.2,6.2,8.7
	c5.4,8.2,12,19.7,20.2,35.9c2.8-2.6,5.4-5.4,7.6-8.5C85.9,62.1,79,50.4,73.2,42z"/>
</svg>
